<?xml version="1.0" encoding="UTF-8"?>
<!DOCTYPE svg PUBLIC "-//W3C//DTD SVG 1.1//EN" "http://www.w3.org/Graphics/SVG/1.1/DTD/svg11.dtd">
<svg xmlns="http://www.w3.org/2000/svg" version="1.1" width="400px" height="400px" style="shape-rendering:geometricPrecision; text-rendering:geometricPrecision; image-rendering:optimizeQuality; fill-rule:evenodd; clip-rule:evenodd" xmlns:xlink="http://www.w3.org/1999/xlink">
<g><path style="opacity:0.904" fill="#202060" d="M 277.5,34.5 C 286.112,34.7012 294.779,35.5345 303.5,37C 307.928,39.4802 312.262,42.1468 316.5,45C 319.704,47.8688 322.537,51.0354 325,54.5C 325.887,58.3251 326.721,62.1584 327.5,66C 327.589,71.112 326.589,76.112 324.5,81C 324.833,81.3333 325.167,81.6667 325.5,82C 321.566,90.779 316.566,98.9456 310.5,106.5C 299.116,117.387 287.282,127.72 275,137.5C 251.567,150.798 227.067,161.798 201.5,170.5C 196.975,180.073 192.642,189.74 188.5,199.5C 189.333,199.833 190.167,200.167 191,200.5C 226.051,193.761 261.217,192.928 296.5,198C 301.887,200.432 307.554,202.099 313.5,203C 314.999,205.827 314.165,207.66 311,208.5C 268.739,202.815 226.572,203.482 184.5,210.5C 176.176,230.304 168.343,250.304 161,270.5C 151.944,290.335 143.278,310.335 135,330.5C 130.659,339.188 125.326,347.188 119,354.5C 117.13,357.018 114.63,358.352 111.5,358.5C 108.854,357.786 106.354,357.786 104,358.5C 91.3185,355.122 78.4851,352.289 65.5,350C 61.0099,348.726 56.6766,347.059 52.5,345C 51.4258,344.261 50.7591,343.261 50.5,342C 50.6772,338.193 52.3439,335.36 55.5,333.5C 57.7802,334.755 58.9468,336.755 59,339.5C 71.3399,345.237 84.3399,348.57 98,349.5C 106.031,349.319 112.364,345.985 117,339.5C 125.62,326.597 132.953,312.931 139,298.5C 150.777,269.946 162.277,241.279 173.5,212.5C 164.358,212.881 155.191,214.215 146,216.5C 144.681,214.75 144.181,212.75 144.5,210.5C 155.32,208.449 165.987,205.782 176.5,202.5C 180.744,193.775 184.411,184.775 187.5,175.5C 186.833,175.167 186.167,174.833 185.5,174.5C 175.479,176.843 165.479,179.176 155.5,181.5C 151.508,181.001 147.508,180.835 143.5,181C 142.594,179.301 142.261,177.467 142.5,175.5C 159.395,173.86 175.729,169.86 191.5,163.5C 202.798,131.573 217.298,101.239 235,72.5C 239,67.1667 243,61.8333 247,56.5C 251.322,52.0122 255.822,47.6789 260.5,43.5C 266.001,39.953 271.668,36.953 277.5,34.5 Z M 287.5,49.5 C 312.917,51.9966 319.751,64.6632 308,87.5C 296.708,102.461 283.208,114.961 267.5,125C 248.377,138.061 228.043,148.728 206.5,157C 216.284,137.264 226.451,117.764 237,98.5C 245.602,84.4839 255.768,71.6505 267.5,60C 273.818,55.6761 280.484,52.1761 287.5,49.5 Z"/></g>
</svg>
