<?xml version="1.0" standalone="no"?>
<!DOCTYPE svg PUBLIC "-//W3C//DTD SVG 20010904//EN"
 "http://www.w3.org/TR/2001/REC-SVG-20010904/DTD/svg10.dtd">
<svg version="1.0" xmlns="http://www.w3.org/2000/svg"
 width="564.000000pt" height="967.000000pt" viewBox="0 0 564.000000 967.000000"
 preserveAspectRatio="xMidYMid meet">

<g transform="translate(0.000000,967.000000) scale(0.100000,-0.100000)"
fill="#000000" stroke="none">
<path d="M2665 9664 c-22 -2 -89 -9 -150 -15 -408 -40 -830 -187 -1203 -420
-318 -198 -638 -513 -849 -836 -263 -403 -409 -832 -453 -1333 -37 -425 42
-903 217 -1313 53 -125 55 -129 43 -176 -13 -57 1 -130 31 -157 19 -17 19 -42
19 -875 l-1 -858 -35 -11 c-48 -16 -62 -43 -60 -117 1 -44 7 -67 20 -82 17
-19 18 -25 7 -63 -7 -23 -39 -92 -71 -154 -67 -131 -77 -157 -90 -240 -7 -43
-7 -84 1 -131 6 -37 14 -109 18 -158 9 -94 30 -152 78 -208 13 -16 35 -53 49
-82 49 -99 123 -186 214 -250 47 -32 118 -93 159 -133 54 -55 76 -71 82 -61
18 30 34 162 34 289 0 114 -4 147 -23 210 -13 41 -33 90 -44 108 -19 31 -19
38 -8 119 16 110 7 225 -25 320 -15 44 -25 97 -25 131 0 77 -33 146 -93 195
-66 54 -92 93 -76 113 17 21 19 122 2 156 -7 16 -27 31 -48 38 l-35 12 0 858
0 859 21 6 c11 4 22 5 24 3 2 -1 34 -50 72 -108 186 -281 426 -533 697 -730
67 -49 86 -68 92 -93 10 -47 31 -84 64 -114 l30 -26 0 -1113 0 -1114 -46 -22
c-53 -24 -82 -74 -64 -107 6 -13 6 -29 -1 -49 -8 -24 -7 -37 5 -60 9 -17 21
-32 27 -34 23 -8 -1 -75 -87 -247 -110 -221 -131 -319 -103 -466 5 -27 13 -98
18 -156 9 -117 34 -187 88 -249 17 -19 45 -64 63 -100 70 -140 147 -227 286
-326 51 -36 129 -104 173 -149 44 -46 82 -81 85 -77 2 4 13 46 23 92 14 66 18
127 18 270 -1 174 -2 190 -28 265 -14 44 -38 97 -53 118 -24 36 -25 42 -15 84
33 129 23 311 -24 447 -16 47 -26 99 -27 151 -4 106 -27 148 -135 252 l-86 82
17 26 c11 17 16 42 15 73 -1 26 -1 52 1 57 12 45 -26 98 -81 110 l-29 7 0
1116 1 1117 24 28 24 27 118 -58 c65 -33 166 -79 226 -103 l107 -43 0 -68 c0
-120 40 -178 113 -164 30 6 39 2 66 -25 l31 -31 -20 -33 c-33 -54 -113 -121
-189 -159 -39 -20 -77 -36 -86 -36 -38 0 37 -90 105 -126 27 -15 56 -19 132
-19 l96 1 -14 -36 c-26 -62 -77 -139 -128 -192 -47 -49 -48 -53 -35 -77 20
-36 97 -72 169 -78 33 -3 60 -10 60 -14 0 -18 -77 -94 -133 -130 l-57 -37 31
-26 c61 -52 88 -61 184 -61 84 0 117 8 175 42 3 2 11 -23 18 -55 27 -131 77
-198 305 -408 l87 -81 -2 -288 -3 -289 -32 -7 c-87 -17 -146 -85 -142 -162 3
-47 2 -48 -48 -82 -159 -107 -189 -299 -67 -434 51 -57 106 -93 172 -112 l42
-12 0 -204 0 -203 -84 0 c-79 0 -86 -2 -105 -26 -28 -35 -26 -69 4 -99 22 -22
32 -25 105 -25 64 0 80 -3 80 -15 0 -12 -16 -15 -85 -15 -96 0 -125 -16 -125
-69 0 -55 25 -70 120 -73 72 -3 85 -6 88 -20 3 -16 -6 -18 -82 -18 -98 0 -126
-16 -126 -70 0 -54 28 -70 125 -70 81 0 86 -1 97 -25 11 -24 62 -55 93 -55 24
0 57 19 77 44 16 19 18 60 18 483 l0 461 38 12 c85 28 169 96 207 170 67 131
26 278 -102 370 -54 39 -55 40 -56 93 -3 82 -46 128 -149 161 -15 4 -17 31
-18 289 l-1 283 39 40 c21 21 85 82 142 134 57 52 120 121 141 153 39 60 79
164 79 204 0 13 1 23 3 23 2 0 23 -10 48 -22 36 -19 60 -23 134 -23 96 0 123
9 184 61 l31 26 -57 37 c-57 37 -133 112 -133 131 0 6 17 10 38 10 59 0 142
29 174 60 15 16 28 33 28 38 0 5 -22 34 -49 63 -52 57 -100 130 -125 190 l-15
36 97 -1 c77 -1 104 3 132 18 44 23 88 63 105 97 14 25 13 26 -24 38 -87 26
-207 115 -251 185 l-20 34 29 30 c26 26 35 29 73 25 37 -4 47 -1 69 21 30 30
39 63 39 150 l0 62 108 43 c59 24 160 70 225 102 l118 59 24 -27 24 -28 1
-1117 0 -1116 -29 -7 c-16 -3 -41 -17 -54 -31 -23 -23 -25 -33 -25 -107 0 -59
4 -87 15 -99 14 -15 13 -20 -6 -46 -11 -17 -48 -54 -82 -82 -83 -73 -113 -132
-115 -231 -1 -50 -9 -96 -23 -133 -50 -134 -62 -317 -30 -464 9 -46 8 -55 -9
-79 -32 -46 -71 -155 -83 -234 -20 -129 0 -424 36 -517 3 -9 34 17 84 70 43
46 116 110 162 142 150 106 225 190 299 336 19 36 47 81 63 100 54 62 79 133
88 249 5 58 13 126 18 151 30 136 3 267 -97 460 -38 74 -78 161 -88 193 -16
53 -17 60 -2 68 24 13 40 61 30 89 -6 15 -6 36 0 52 14 39 -12 82 -62 104
l-40 18 -2 1114 -3 1114 29 32 c31 34 65 101 66 128 0 9 21 32 48 49 181 124
444 371 588 554 43 55 112 150 153 212 66 101 75 111 92 100 18 -11 19 -39 19
-867 l0 -856 -38 -17 c-45 -20 -66 -56 -53 -90 5 -14 5 -30 -1 -40 -6 -12 -4
-27 6 -49 20 -39 10 -56 -65 -120 -66 -55 -99 -121 -99 -200 0 -34 -10 -87
-24 -130 -33 -97 -42 -207 -26 -316 12 -85 11 -88 -13 -137 -50 -98 -62 -159
-62 -310 0 -100 5 -162 18 -217 10 -43 20 -78 22 -78 2 0 37 33 77 73 40 40
109 97 152 127 85 58 165 147 206 227 14 26 43 75 65 108 59 87 67 110 76 210
4 50 12 119 19 155 20 116 -1 203 -90 376 -32 60 -64 128 -70 151 -11 37 -10
43 8 61 16 16 20 33 20 83 -1 78 -10 96 -54 115 l-34 14 0 864 c0 754 2 865
15 876 27 22 38 88 25 150 -11 54 -11 57 28 140 53 115 116 296 152 441 237
937 -10 1905 -667 2618 -448 485 -1088 808 -1747 881 -107 11 -406 21 -471 14z
m509 -69 c1143 -153 2062 -975 2337 -2090 57 -232 73 -373 73 -655 0 -215 -4
-278 -23 -400 -24 -160 -63 -324 -111 -470 -37 -112 -119 -310 -128 -310 -4 0
-25 14 -46 30 -22 17 -46 30 -53 30 -19 0 -17 11 26 115 108 258 169 524 196
848 4 42 11 77 16 77 23 0 49 42 49 79 0 31 -6 44 -30 64 -28 24 -29 29 -40
152 -29 336 -122 671 -266 957 -25 50 -32 74 -25 81 6 6 11 28 11 49 0 48 -35
88 -78 88 -25 0 -36 12 -87 86 -177 261 -437 521 -698 699 -75 51 -87 62 -87
87 0 43 -40 78 -88 78 -21 0 -43 -5 -48 -10 -7 -7 -44 6 -115 39 -239 113
-485 189 -726 225 -144 22 -181 26 -252 27 -58 2 -66 5 -94 36 -41 45 -86 46
-130 2 -29 -30 -37 -32 -135 -40 -190 -15 -321 -37 -497 -85 -138 -38 -364
-123 -479 -181 -49 -25 -72 -31 -79 -24 -6 6 -28 11 -49 11 -48 0 -88 -35 -88
-77 0 -24 -14 -38 -107 -104 -278 -196 -530 -455 -708 -726 -21 -33 -34 -43
-55 -43 -42 0 -80 -41 -80 -88 0 -21 5 -43 10 -48 7 -7 -7 -47 -44 -125 -137
-292 -217 -591 -246 -917 -10 -119 -11 -124 -40 -149 -23 -19 -30 -33 -30 -62
0 -35 28 -81 50 -81 4 0 11 -30 14 -67 31 -346 86 -589 192 -846 48 -118 50
-127 31 -127 -8 0 -33 -13 -55 -30 -23 -17 -44 -30 -46 -30 -2 0 -24 48 -49
108 -358 859 -267 1829 245 2597 118 177 200 278 348 426 467 468 1067 749
1727 809 135 12 444 4 587 -15z m-432 -177 c3 -7 -42 -65 -100 -128 -57 -63
-129 -148 -159 -188 -57 -75 -179 -255 -185 -272 -2 -5 -65 22 -142 60 -147
73 -328 144 -463 181 -105 28 -109 45 -24 88 298 151 679 249 1038 269 17 1
33 -3 35 -10z m458 -19 c235 -33 464 -101 692 -204 130 -58 152 -73 140 -91
-4 -6 -56 -25 -117 -43 -143 -42 -312 -110 -455 -183 -64 -32 -117 -53 -119
-47 -1 5 -33 56 -70 112 -83 125 -203 276 -302 380 -94 98 -92 110 19 101 42
-3 138 -14 212 -25z m-406 -29 c17 -6 36 -6 57 2 30 10 33 8 96 -53 87 -86
217 -249 310 -388 73 -109 76 -115 57 -128 -10 -7 -73 -49 -139 -91 -66 -43
-159 -108 -207 -145 -83 -63 -88 -65 -117 -54 -24 9 -38 9 -62 0 -29 -11 -34
-8 -147 76 -64 49 -157 113 -207 144 -145 90 -138 68 -63 183 36 54 97 140
136 191 75 96 238 273 252 273 5 0 20 -4 34 -10z m-1074 -325 c52 -15 147 -48
210 -72 132 -52 353 -160 348 -171 -2 -4 -42 -86 -91 -182 -48 -96 -105 -222
-127 -280 -22 -58 -43 -104 -48 -103 -5 1 -63 9 -128 18 -66 9 -129 18 -141
21 -52 10 -133 182 -133 281 l0 44 -31 -18 c-56 -33 -120 -95 -149 -147 l-30
-51 0 43 c0 110 46 401 85 535 15 52 19 57 45 57 19 0 36 9 52 29 13 15 28 27
33 25 6 -1 53 -15 105 -29z m2391 -25 c25 0 30 -5 44 -52 38 -127 85 -424 85
-531 l0 -52 -30 51 c-29 52 -93 114 -149 147 l-31 18 0 -44 c0 -99 -81 -271
-133 -281 -12 -3 -62 -10 -112 -16 -49 -6 -107 -15 -127 -19 l-37 -9 -47 122
c-26 66 -84 193 -128 281 -45 88 -82 163 -84 167 -5 11 285 149 393 188 50 18
132 45 184 60 l95 27 24 -28 c16 -20 33 -29 53 -29z m-2634 -14 c-3 -12 -16
-70 -30 -131 -35 -151 -57 -304 -64 -455 l-6 -127 -131 -7 c-155 -8 -301 -28
-451 -63 -60 -14 -119 -27 -131 -30 -42 -10 -34 25 28 114 177 256 382 463
646 652 113 80 149 93 139 47z m2889 -93 c215 -161 435 -390 582 -606 47 -70
63 -100 55 -108 -8 -8 -41 -4 -119 16 -144 35 -340 63 -496 72 l-128 6 0 76
c0 144 -35 388 -81 575 -32 126 -22 124 187 -31z m-1925 -204 c68 -45 164
-112 214 -149 l90 -68 0 -54 0 -53 -136 -133 c-127 -123 -138 -132 -162 -123
-33 13 -232 65 -329 86 -43 9 -78 19 -78 21 0 3 14 42 32 87 69 180 212 467
232 467 7 0 68 -37 137 -81z m956 -11 c73 -133 212 -453 201 -463 -2 -2 -62
-17 -133 -34 -72 -16 -168 -41 -215 -55 l-85 -25 -134 132 -134 132 0 53 -1
52 80 62 c93 72 344 238 360 238 6 0 33 -42 61 -92z m-1748 -366 c66 -132 200
-240 429 -348 337 -160 413 -208 503 -318 47 -57 109 -170 125 -225 6 -22 0
-19 -44 20 -73 63 -142 103 -297 169 -154 67 -192 88 -254 145 -28 25 -40 32
-33 19 27 -51 114 -113 268 -188 237 -117 313 -175 369 -285 36 -72 31 -85 -9
-25 -74 109 -194 178 -422 244 -171 48 -214 66 -278 115 -42 31 -46 33 -28 11
48 -62 109 -92 311 -156 72 -23 164 -58 204 -78 171 -85 253 -235 245 -446 -3
-78 -7 -100 -35 -153 -17 -35 -30 -63 -28 -63 5 0 83 125 97 155 l13 29 6 -39
5 -40 9 53 c4 28 11 52 15 52 3 0 11 -21 17 -47 10 -46 10 -47 12 -13 l2 35
15 -30 c20 -38 95 -155 100 -155 1 0 -11 28 -29 63 -31 60 -32 66 -31 182 1
136 19 202 81 287 64 88 146 136 339 198 227 73 302 110 340 168 16 25 15 24
-21 -7 -52 -45 -117 -73 -287 -121 -79 -22 -180 -59 -225 -81 -86 -43 -174
-118 -212 -180 -33 -53 -25 -13 11 53 53 99 126 156 336 260 179 89 266 149
293 202 7 13 -6 5 -32 -20 -56 -53 -104 -80 -262 -148 -153 -66 -198 -91 -277
-157 -33 -27 -60 -47 -60 -44 0 14 46 114 74 160 95 159 182 222 538 389 87
41 189 95 227 121 142 95 232 218 270 366 l18 70 39 -31 c86 -68 126 -145 132
-255 4 -91 -8 -132 -59 -190 -39 -44 -50 -45 -38 -3 11 39 11 135 0 163 -6 14
-10 -2 -12 -50 -7 -107 -33 -151 -140 -235 -89 -71 -149 -139 -149 -169 1 -12
3 -11 12 4 27 50 90 100 191 152 60 30 121 66 136 79 33 27 35 25 71 -45 12
-25 25 -71 27 -102 10 -108 -59 -202 -177 -244 -21 -8 -92 -21 -156 -29 -134
-18 -206 -47 -244 -98 -18 -25 -19 -29 -4 -16 45 39 117 61 217 66 66 3 97 1
97 -6 0 -15 -56 -57 -110 -82 -43 -20 -44 -21 -10 -14 52 10 103 39 137 77 30
35 73 54 73 34 0 -25 -41 -77 -77 -100 -84 -53 -207 -76 -408 -77 -133 -1
-242 -17 -325 -49 -107 -41 -207 -139 -249 -245 -11 -28 -20 -43 -20 -32 -1
32 30 140 50 175 15 25 16 31 5 22 -25 -21 -65 -111 -80 -181 l-14 -65 -1 45
c-2 90 40 204 101 277 29 35 28 34 -16 -7 -109 -104 -153 -277 -108 -426 12
-38 30 -82 40 -99 19 -30 19 -31 -4 -75 -13 -25 -43 -88 -67 -140 -24 -52 -56
-106 -71 -119 l-26 -25 -29 28 c-16 15 -47 69 -70 120 -22 51 -51 112 -65 135
l-24 43 23 41 c41 74 58 152 53 243 -4 70 -10 94 -41 156 -21 44 -55 91 -83
118 -44 41 -45 42 -16 7 64 -76 102 -184 102 -292 0 -90 -16 -100 -22 -13 -6
76 -35 166 -68 208 -17 22 -16 17 5 -35 30 -73 34 -118 5 -64 -30 57 -107 136
-163 168 -101 57 -172 71 -402 81 -115 5 -221 12 -235 16 -67 16 -129 39 -163
61 -36 23 -77 75 -77 100 0 21 42 0 77 -38 21 -24 55 -46 89 -59 80 -29 85
-25 13 13 -34 17 -69 43 -78 56 l-15 24 99 -5 c102 -5 174 -27 219 -66 18 -16
18 -16 7 5 -28 55 -109 90 -250 108 -192 26 -265 61 -313 154 -42 80 -35 164
23 257 l20 33 47 -33 c26 -18 88 -54 139 -80 85 -44 141 -91 180 -152 7 -10 6
-1 -3 21 -19 49 -56 89 -156 167 -93 72 -118 117 -126 222 -3 48 -8 64 -13 51
-10 -27 -10 -112 0 -157 11 -45 4 -47 -32 -10 -67 71 -86 191 -46 299 16 42
39 75 87 123 l65 65 18 -71 c10 -40 31 -99 48 -132z m1176 25 c6 0 22 4 36 7
23 7 39 -6 153 -120 102 -100 125 -129 113 -135 -8 -5 -60 -21 -114 -35 -54
-15 -119 -37 -144 -50 l-47 -23 -48 23 c-27 13 -93 35 -147 50 -54 14 -106 30
-114 35 -13 7 10 34 112 135 121 119 131 126 160 120 16 -4 35 -7 40 -7z
m-1443 -199 c3 -103 1 -118 -22 -168 -21 -46 -25 -70 -25 -145 0 -83 3 -95 32
-149 18 -33 32 -60 30 -61 -1 0 -46 -18 -101 -39 -54 -21 -171 -75 -260 -120
-88 -44 -164 -82 -168 -84 -10 -5 -119 216 -168 338 -22 55 -55 151 -74 214
l-34 114 29 28 c18 18 29 38 29 55 0 25 6 30 49 43 150 44 414 83 578 85 l102
1 3 -112z m3185 97 c128 -16 284 -45 371 -70 45 -14 52 -19 52 -41 0 -15 12
-38 30 -55 l29 -30 -34 -114 c-19 -63 -53 -159 -75 -214 -49 -123 -158 -344
-168 -339 -4 2 -66 33 -137 69 -113 58 -210 102 -358 163 l-38 15 25 38 c38
59 49 108 44 192 -3 51 -12 90 -26 118 -19 36 -22 59 -22 163 l0 120 93 0 c51
0 147 -7 214 -15z m-703 -26 c-22 -24 -177 -129 -191 -129 -10 0 -47 109 -40
117 7 6 241 41 246 37 2 -2 -4 -13 -15 -25z m-1956 7 c52 -8 96 -16 99 -19 8
-9 -30 -117 -41 -117 -15 0 -168 104 -191 130 -18 20 -18 20 11 20 16 0 71 -6
122 -14z m327 -66 c226 -57 261 -72 198 -85 -105 -22 -165 -39 -211 -60 l-54
-25 -89 42 c-98 45 -94 37 -62 126 l15 44 47 -7 c25 -4 96 -19 156 -35z m1396
-15 c10 -27 18 -55 18 -61 1 -6 -39 -30 -89 -52 l-89 -41 -53 24 c-61 28 -160
55 -200 55 -25 0 -46 15 -36 26 8 7 174 54 283 80 137 32 144 30 166 -31z
m-1131 -65 c0 -5 -2 -10 -4 -10 -3 0 -8 5 -11 10 -3 6 -1 10 4 10 6 0 11 -4
11 -10z m660 6 c0 -3 -4 -8 -10 -11 -5 -3 -10 -1 -10 4 0 6 5 11 10 11 6 0 10
-2 10 -4z m-2558 -128 c41 -146 97 -290 174 -446 l70 -145 -85 -55 c-132 -85
-255 -180 -382 -295 -75 -68 -121 -102 -129 -97 -16 10 2 215 36 396 39 212
128 483 220 667 48 95 63 92 96 -25z m4533 23 c126 -252 214 -555 250 -866 18
-158 19 -192 3 -198 -7 -2 -56 36 -108 84 -127 118 -212 185 -350 276 -63 42
-119 80 -124 85 -6 4 23 75 68 167 68 142 186 462 186 506 0 8 9 15 20 15 14
0 29 -18 55 -69z m-2458 35 c29 -8 73 -24 98 -36 l45 -22 43 21 c141 68 326
68 484 0 l47 -20 -94 -51 c-178 -95 -271 -179 -347 -315 -18 -32 -33 -51 -33
-43 0 24 66 168 96 208 l27 37 -42 -40 c-49 -47 -105 -153 -131 -251 -17 -64
-18 -66 -19 -29 -1 71 63 294 90 311 5 3 9 10 9 17 0 18 -49 -59 -75 -118 -13
-29 -29 -80 -36 -114 -13 -61 -29 -82 -29 -38 0 31 -36 140 -65 197 -35 67
-60 94 -29 31 33 -68 74 -230 73 -285 -1 -40 -1 -40 -16 19 -21 90 -85 214
-134 260 l-42 40 26 -35 c28 -38 81 -149 91 -190 7 -29 14 -37 -67 86 -67 103
-148 169 -308 254 l-92 48 49 22 c110 49 275 64 381 36z m-1236 -426 c4 -8 18
-64 32 -123 l24 -108 -27 -14 c-15 -8 -56 -19 -90 -24 -34 -6 -65 -12 -67 -14
-12 -13 54 -122 92 -151 l42 -32 -23 -44 c-13 -25 -62 -85 -109 -135 l-85 -90
-26 30 c-108 127 -324 441 -324 472 0 26 489 255 534 250 10 -1 22 -9 27 -17z
m2908 -25 c112 -45 322 -145 386 -185 l34 -21 -51 -82 c-97 -157 -281 -405
-307 -415 -12 -4 -176 180 -198 222 l-20 39 41 32 c37 28 106 139 93 151 -2 3
-33 9 -67 15 -34 5 -75 16 -90 24 l-27 14 23 98 c13 54 24 105 24 114 0 18 19
39 36 39 7 0 62 -20 123 -45z m-2814 -119 c31 -33 31 -40 1 -59 l-24 -16 -21
84 c-26 105 -26 136 0 69 11 -29 31 -64 44 -78z m2615 13 c-20 -80 -24 -88
-39 -77 -29 23 -30 31 -1 67 16 20 35 55 42 79 22 73 21 25 -2 -69z m-2458
-99 c40 -11 85 -20 100 -20 34 0 35 -13 4 -45 -29 -29 -118 -56 -211 -65 l-70
-6 59 -13 c56 -12 77 -12 152 4 l31 7 -16 -52 -16 -52 -95 4 c-112 6 -155 24
-218 92 -47 51 -52 66 -22 66 29 0 170 56 200 80 14 11 26 20 28 20 1 0 35 -9
74 -20z m2377 -10 c51 -32 151 -70 183 -70 10 0 18 -4 18 -8 0 -18 -53 -78
-92 -104 -55 -38 -105 -49 -190 -46 l-71 3 -15 43 c-8 24 -12 45 -10 48 3 2
29 -1 60 -7 42 -9 68 -8 114 2 l59 13 -70 6 c-38 4 -96 14 -129 24 -57 17
-112 58 -102 75 3 4 28 11 55 15 27 4 67 13 88 21 51 18 46 19 102 -15z
m-3163 -77 c72 -118 149 -228 236 -336 l79 -99 -44 -51 c-70 -82 -209 -277
-262 -366 -27 -45 -52 -84 -57 -87 -23 -14 -324 206 -466 341 l-97 92 1 73 0
73 86 83 c48 45 126 113 174 150 85 67 282 202 295 203 4 1 28 -34 55 -76z
m4068 -46 c116 -82 251 -194 320 -266 l50 -51 0 -71 1 -71 -96 -93 c-53 -51
-132 -120 -176 -153 -78 -59 -276 -192 -286 -192 -3 0 -22 28 -43 63 -73 122
-233 344 -301 418 l-24 26 72 88 c89 111 154 203 231 328 l60 98 47 -27 c25
-15 90 -58 145 -97z m-3004 67 c-51 -43 -61 -122 -24 -179 10 -16 11 -30 4
-55 -24 -83 -1 -173 61 -244 69 -78 178 -112 271 -83 41 13 48 13 61 0 8 -9
35 -17 60 -20 38 -5 48 -2 76 23 44 39 51 95 20 144 -18 28 -22 47 -20 96 4
80 -11 131 -54 187 -42 55 -119 96 -191 100 -38 2 -60 10 -83 30 l-33 27 31 0
c16 0 61 -7 99 -15 232 -48 366 -209 365 -437 0 -69 -4 -82 -28 -115 -46 -63
-96 -103 -174 -141 -141 -68 -309 -54 -441 37 -75 51 -141 140 -169 229 -19
59 -23 87 -19 161 4 78 9 99 41 163 52 106 73 124 130 120 l46 -4 -29 -24z
m1794 1 c123 -161 128 -385 12 -543 -57 -76 -141 -137 -229 -164 -56 -17 -86
-20 -159 -16 -77 5 -99 11 -161 42 -77 38 -125 77 -172 140 -27 36 -30 46 -29
116 4 249 166 418 427 446 l62 6 -27 -28 c-22 -22 -38 -28 -78 -31 -65 -4
-125 -30 -171 -75 -56 -56 -74 -101 -75 -193 -1 -64 -6 -87 -23 -115 -28 -45
-23 -103 12 -138 34 -34 103 -41 136 -15 23 19 28 19 70 6 86 -27 180 -2 255
67 71 65 102 170 77 257 -7 25 -5 40 10 70 10 20 19 48 19 60 0 37 -25 88 -54
111 l-27 21 33 4 c18 2 40 5 49 5 9 1 29 -14 43 -33z m-1628 -29 c52 -52 44
-128 -18 -166 -41 -25 -74 -25 -114 -1 -93 57 -52 201 58 201 32 0 47 -7 74
-34z m1513 8 c57 -47 50 -137 -13 -175 -40 -24 -73 -24 -114 1 -62 38 -70 114
-18 166 44 44 99 47 145 8z m-2012 -186 l82 -11 -6 -31 c-3 -17 -7 -32 -9 -34
-1 -2 -42 -12 -90 -23 -48 -10 -90 -21 -93 -25 -3 -3 39 -4 94 -3 l100 3 9
-47 c4 -27 5 -51 1 -55 -4 -4 -43 -7 -88 -7 -70 0 -90 5 -134 28 -28 14 -54
31 -58 37 -9 14 23 106 52 153 18 28 29 37 41 32 9 -3 54 -11 99 -17z m2510
-24 c13 -21 30 -61 39 -88 l16 -48 -28 -23 c-44 -36 -126 -58 -194 -53 -33 2
-62 7 -65 10 -3 3 -2 27 2 54 l8 48 98 -3 c53 -1 97 0 97 2 0 4 -92 28 -166
43 -16 3 -23 13 -26 38 l-4 34 63 7 c34 3 75 10 90 15 39 12 45 9 70 -36z
m-1771 8 c52 -34 25 -122 -38 -122 -56 0 -86 60 -52 108 15 22 66 30 90 14z
m978 -14 c22 -31 20 -64 -4 -88 -41 -41 -112 -13 -112 45 0 60 83 90 116 43z
m-1341 -55 c9 -39 41 -89 72 -109 15 -10 54 -19 98 -22 78 -5 97 -14 97 -45 0
-31 -29 -57 -65 -57 -119 0 -225 106 -225 225 0 49 14 54 23 8z m1622 -89
c-30 -80 -124 -144 -209 -144 -33 0 -66 25 -66 50 0 37 23 49 97 53 105 6 129
27 179 152 7 15 9 10 12 -24 2 -25 -4 -63 -13 -87z m-2253 -12 c-2 -49 1 -119
7 -157 7 -37 10 -69 8 -71 -6 -7 -148 159 -144 169 4 13 121 145 128 146 4 1
4 -39 1 -87z m3008 -61 c0 -12 -142 -172 -147 -167 -2 2 1 34 8 71 6 38 9 108
6 159 l-5 91 69 -73 c38 -39 69 -76 69 -81z m-1925 34 c73 -73 -37 -184 -112
-113 -50 47 -12 138 57 138 19 0 40 -9 55 -25z m820 0 c53 -52 18 -135 -56
-135 -71 0 -105 85 -54 135 15 16 36 25 55 25 19 0 40 -9 55 -25z m-1782 -19
l59 -28 -36 -30 c-20 -16 -36 -34 -36 -40 0 -7 10 -3 23 8 30 27 92 54 124 54
24 0 21 -4 -28 -39 -32 -23 -64 -57 -78 -82 l-24 -44 38 43 c20 23 50 49 66
58 l29 15 -34 -45 c-33 -43 -58 -100 -71 -159 -6 -31 -1 -35 71 -46 29 -4 48
-12 47 -19 -2 -6 -6 -44 -10 -84 l-6 -72 -52 57 c-63 69 -108 157 -135 263
-19 75 -28 230 -12 222 4 -2 33 -17 65 -32z m2704 -68 c-9 -162 -58 -285 -158
-391 l-48 -52 -1 35 c0 19 -3 58 -6 86 l-6 51 61 7 62 7 -7 37 c-7 44 -49 140
-71 164 -9 10 -11 18 -5 18 5 0 29 -21 53 -47 l42 -48 -24 44 c-14 25 -46 60
-78 82 -49 35 -52 39 -28 39 32 0 94 -27 125 -54 12 -11 22 -15 22 -8 0 6 -16
23 -35 39 l-35 29 50 18 c27 10 54 24 61 32 26 32 32 14 26 -88z m-2883 -64
c70 -75 97 -113 121 -169 18 -40 42 -87 55 -105 l23 -32 -34 -140 c-30 -126
-37 -141 -59 -150 -14 -5 -34 -17 -45 -27 -19 -18 -23 -17 -110 18 -134 53
-390 185 -393 202 -5 27 324 499 348 499 3 0 45 -43 94 -96z m3157 13 c117
-147 279 -387 279 -415 0 -15 -204 -122 -357 -187 -126 -53 -128 -54 -148 -35
-11 10 -31 23 -44 28 -20 7 -28 26 -58 145 l-34 138 33 57 c17 31 41 80 53
108 14 34 51 84 110 148 49 53 92 96 95 96 3 0 35 -37 71 -83z m-2706 32 c9
-17 15 -32 13 -33 -46 -27 -93 -66 -109 -87 -17 -24 -12 -22 47 17 71 47 85
52 103 30 9 -11 9 -30 0 -79 -11 -61 -14 -66 -42 -71 -42 -9 -72 -7 -144 5
-54 10 -63 14 -63 33 1 53 63 150 124 193 42 30 53 28 71 -8z m2169 2 c90 -62
151 -200 94 -214 -53 -13 -130 -19 -171 -13 l-44 7 -11 67 c-9 55 -9 69 3 81
18 18 59 2 123 -47 l45 -34 -23 32 c-12 17 -41 43 -64 57 -22 14 -42 27 -44
28 -7 6 29 65 39 65 6 0 29 -13 53 -29z m-3446 -214 c50 -41 149 -114 220
-162 l130 -86 -49 -93 c-60 -114 -125 -268 -168 -399 -27 -81 -36 -97 -50 -92
-9 4 -35 10 -58 12 l-42 5 -39 97 c-106 255 -166 500 -192 784 -15 163 -10
168 85 79 39 -38 113 -103 163 -145z m4897 111 c-21 -285 -87 -565 -195 -826
l-41 -100 -42 -5 c-23 -2 -49 -8 -58 -11 -13 -6 -25 18 -64 131 -26 76 -80
207 -121 292 -41 85 -73 158 -72 161 2 4 62 47 133 95 149 100 240 174 352
280 43 41 86 74 97 75 17 0 18 -7 11 -92z m-2207 -97 c175 -89 413 -68 547 50
20 18 38 29 41 26 3 -3 8 -32 11 -64 14 -154 -68 -262 -257 -339 -66 -27 -342
-105 -348 -99 -2 2 15 13 38 25 45 23 140 106 140 122 0 5 -20 -8 -44 -29 -24
-21 -67 -47 -97 -57 -30 -11 -89 -36 -131 -58 -77 -38 -98 -39 -57 -2 25 23
59 86 59 111 0 10 -12 -2 -28 -28 -16 -25 -57 -69 -92 -99 -89 -78 -113 -102
-133 -130 l-17 -25 -43 45 c-24 25 -74 72 -112 104 -37 33 -81 80 -96 105 -16
25 -29 38 -29 30 1 -24 36 -93 59 -113 40 -36 21 -35 -56 3 -43 21 -102 46
-132 57 -30 10 -74 37 -99 59 -25 22 -40 31 -34 20 17 -31 83 -91 127 -114
l40 -22 -35 7 c-84 15 -281 78 -349 111 -150 72 -221 179 -208 316 3 32 8 61
11 65 4 3 19 -6 34 -20 158 -145 434 -151 622 -12 33 24 60 40 60 35 0 -4 -18
-29 -40 -54 -43 -49 -145 -107 -189 -107 -14 0 -33 -5 -41 -11 -11 -8 1 -9 44
-5 80 7 154 45 215 112 56 61 61 62 32 6 -20 -38 -80 -101 -116 -120 -16 -9
-17 -11 -3 -12 28 0 140 97 165 143 8 16 15 4 43 -65 37 -94 66 -142 104 -177
l26 -25 31 30 c29 26 119 196 119 223 0 19 16 12 38 -19 30 -40 120 -110 140
-110 14 1 13 3 -3 12 -36 19 -96 82 -116 120 -30 58 -23 57 31 -4 60 -68 134
-107 216 -115 74 -7 66 4 -16 23 -89 21 -165 76 -201 147 l-20 38 56 -46 c31
-25 73 -54 93 -64z m-1388 -59 c0 -5 -16 -27 -36 -50 -44 -52 -32 -55 19 -6
21 20 39 35 40 33 11 -15 27 -93 20 -99 -17 -15 -78 -30 -124 -30 l-49 0 0 38
c0 20 3 54 6 74 6 35 9 37 48 41 22 2 49 4 59 5 9 1 17 -2 17 -6z m2159 -8 c2
-2 6 -35 9 -74 l5 -70 -50 0 c-47 0 -109 14 -126 30 -8 7 13 100 23 100 3 0
21 -16 40 -35 47 -49 59 -44 16 7 -20 23 -36 45 -36 50 0 7 109 0 119 -8z
m-2383 -154 c40 -44 160 -128 223 -156 40 -17 51 -35 51 -86 0 -23 -12 -36
-72 -78 -39 -27 -78 -50 -85 -50 -8 0 -48 10 -88 21 -69 20 -74 23 -80 55 -3
18 -17 42 -31 53 l-26 20 33 131 c17 71 34 130 36 130 1 0 19 -18 39 -40z
m2563 -88 l33 -129 -31 -31 c-18 -17 -31 -41 -31 -55 0 -21 -8 -27 -76 -47
-41 -12 -85 -19 -97 -16 -12 3 -50 27 -84 53 -49 36 -63 52 -63 72 0 51 12 66
73 96 72 36 175 112 208 154 13 16 27 30 30 30 3 1 20 -57 38 -127z m-2218 58
c49 -44 151 -94 264 -129 249 -76 234 -71 185 -64 -86 11 -295 74 -375 112
-65 32 -74 34 -50 15 32 -26 126 -77 185 -100 34 -14 34 -14 -24 -8 -135 13
-337 90 -421 159 l-30 25 65 -6 c45 -4 77 -1 105 9 57 21 60 20 96 -13z m1889
14 c32 -12 63 -14 108 -10 34 4 62 5 62 2 0 -9 -128 -86 -182 -110 -71 -31
-185 -62 -264 -71 l-59 -6 79 35 c73 33 151 79 162 97 2 4 -15 -3 -38 -16 -24
-13 -73 -35 -110 -49 -82 -30 -313 -89 -330 -84 -6 2 20 12 58 22 218 58 365
119 422 176 33 33 36 34 92 14z m-2775 -120 c88 -44 197 -96 243 -114 71 -29
82 -37 82 -58 0 -13 14 -37 31 -54 27 -27 30 -36 24 -67 -4 -20 -9 -54 -11
-76 -2 -22 -8 -83 -13 -135 -6 -52 -11 -139 -11 -192 0 -53 -4 -99 -8 -102
-12 -7 -264 12 -386 29 -128 19 -371 78 -392 96 -18 15 -18 37 1 73 8 15 15
40 15 54 0 36 35 149 87 282 50 126 161 353 172 348 3 -2 78 -39 166 -84z
m3805 -34 c96 -191 190 -444 190 -509 0 -16 7 -42 15 -57 18 -36 19 -58 2 -73
-21 -16 -225 -68 -362 -91 -120 -20 -402 -43 -417 -34 -4 3 -8 51 -8 107 0 56
-5 143 -10 192 -5 50 -12 114 -15 143 -2 29 -7 63 -11 76 -4 17 2 31 25 54 17
17 31 41 31 54 0 21 12 29 83 57 89 36 376 176 392 192 5 5 13 9 17 9 4 0 35
-54 68 -120z m-2945 -26 c14 -6 14 -8 -1 -25 -14 -15 -19 -17 -26 -7 -19 31
-7 45 27 32z m1885 -12 c0 -28 -11 -34 -31 -16 -21 19 -16 34 12 34 12 0 19
-7 19 -18z m-1830 -54 c-13 -18 -39 -51 -59 -72 l-36 -39 33 22 c18 12 51 45
75 72 23 27 47 49 53 49 16 0 83 -76 100 -114 l15 -31 -4 45 c-3 25 -8 53 -12
63 -7 16 -4 18 16 15 23 -3 24 -8 29 -83 l5 -80 13 47 c6 26 12 61 12 77 0 17
4 31 9 31 13 0 19 -78 9 -129 -8 -46 -47 -131 -59 -131 -4 0 -14 21 -23 46
-19 58 -57 123 -85 148 -19 17 -18 12 9 -45 56 -120 73 -213 68 -373 -4 -125
-10 -159 -47 -299 -66 -251 -73 -380 -36 -612 9 -51 -34 49 -57 135 -28 105
-35 298 -15 415 9 49 15 91 13 92 -7 7 -37 -119 -47 -198 -16 -122 -5 -247 36
-429 10 -42 -46 70 -71 142 -67 199 -56 454 30 670 14 35 19 54 11 44 -21 -28
-72 -164 -92 -244 -11 -46 -17 -112 -17 -209 -1 -78 -4 -139 -8 -135 -17 17
-49 176 -55 267 -5 87 0 148 22 275 3 14 -4 -2 -15 -34 -32 -95 -44 -232 -31
-339 14 -110 58 -247 108 -337 20 -36 52 -94 71 -130 46 -86 80 -134 141 -199
28 -30 49 -56 47 -59 -8 -8 -73 32 -136 83 -79 64 -142 137 -205 234 -78 120
-93 168 -101 322 -11 222 25 441 94 572 38 74 38 78 0 25 -81 -110 -123 -260
-135 -483 l-7 -130 -13 65 c-23 121 -15 275 22 430 5 21 5 22 -5 8 -20 -33
-50 -170 -57 -267 -5 -80 -8 -91 -16 -66 -5 17 -10 77 -10 135 -1 121 21 209
80 321 33 64 37 68 95 89 61 22 122 69 161 124 21 30 20 30 -23 -7 -103 -87
-228 -119 -308 -78 -22 11 -43 25 -46 30 -3 5 18 14 47 21 120 28 248 109 352
222 61 66 96 77 55 16z m1944 -146 c43 -29 107 -59 164 -78 69 -23 90 -33 80
-41 -85 -68 -202 -54 -325 39 -56 42 -62 44 -44 19 36 -50 101 -99 163 -123
55 -21 63 -28 89 -79 65 -123 96 -264 84 -375 -13 -119 -21 -126 -28 -24 -6
94 -36 235 -57 268 -10 15 -10 14 -5 -4 37 -136 45 -315 21 -434 l-14 -65 -1
75 c-4 234 -55 432 -143 551 -32 43 -32 29 1 -32 104 -191 136 -623 59 -791
-63 -136 -188 -288 -317 -381 -86 -64 -105 -60 -42 9 81 88 147 195 241 390
82 168 107 390 66 569 -17 73 -45 149 -32 85 33 -161 32 -321 -4 -455 -12 -44
-25 -83 -29 -87 -3 -4 -5 38 -3 93 5 110 -9 217 -40 319 -22 71 -79 203 -85
197 -2 -2 7 -28 21 -58 84 -191 99 -474 36 -668 -21 -62 -70 -174 -75 -169 -2
2 6 41 17 88 30 127 30 354 0 473 -12 49 -27 96 -33 105 -10 15 -10 15 -5 0 3
-10 13 -57 22 -105 18 -97 15 -323 -6 -398 -18 -66 -62 -186 -66 -182 -3 2 2
44 11 92 26 153 14 322 -40 526 -50 188 -58 246 -52 384 5 141 31 244 83 335
23 41 24 43 3 25 -32 -29 -68 -89 -94 -159 l-23 -61 -31 65 c-25 52 -31 77
-30 125 l1 60 13 -58 c19 -88 30 -86 30 6 0 79 1 82 24 85 19 3 23 0 17 -14
-4 -10 -9 -39 -12 -64 l-5 -45 15 31 c17 38 84 114 100 114 6 0 30 -22 53 -49
24 -27 57 -60 75 -72 l33 -22 -36 39 c-59 64 -84 105 -69 114 8 5 36 -18 83
-66 38 -41 102 -96 141 -122z m-1496 133 c2 -2 -6 -26 -18 -54 -22 -49 -92
-125 -140 -151 -21 -11 -23 -11 -16 11 28 98 36 138 36 172 l0 39 68 -7 c37
-4 68 -8 70 -10z m988 -48 c0 -39 8 -79 21 -109 23 -51 21 -63 -10 -47 -61 33
-130 119 -151 186 -7 23 4 27 104 31 l35 2 1 -63z m-831 14 c81 -24 178 -77
172 -94 -3 -11 -97 -87 -107 -87 -3 0 -27 17 -55 38 -47 36 -115 130 -115 160
0 14 -2 15 105 -17z m635 17 c0 -32 -64 -120 -115 -159 l-54 -41 -44 30 c-24
17 -49 38 -57 47 -12 15 -12 19 5 32 32 24 125 65 190 84 74 22 75 22 75 7z
m-1590 -72 l75 -24 -50 -21 c-46 -21 -154 -51 -182 -51 -7 0 -13 11 -13 24 0
26 23 56 44 56 7 0 21 9 31 20 10 11 19 20 19 20 1 0 35 -11 76 -24z m2535 4
c10 -11 24 -20 31 -20 21 0 44 -30 44 -56 0 -13 -6 -24 -12 -24 -29 0 -137 30
-183 51 l-50 22 70 22 c39 13 73 23 76 24 3 1 14 -8 24 -19z m-1714 -244 c7
-7 19 129 19 208 l0 50 28 -45 c16 -24 53 -66 82 -91 l53 -47 -18 -47 c-20
-53 -79 -123 -131 -155 l-35 -21 -54 41 c-54 41 -98 102 -114 159 -8 26 -5 31
38 63 25 19 62 58 81 87 l35 54 5 -125 c3 -69 8 -128 11 -131z m785 109 c8
-147 22 -128 23 33 1 61 4 112 9 112 4 -1 16 -20 28 -43 11 -23 45 -62 75 -86
58 -47 61 -59 32 -116 -27 -52 -62 -93 -109 -125 l-45 -31 -34 21 c-49 30
-111 104 -131 156 l-17 44 59 54 c33 30 68 70 79 90 23 43 22 47 31 -109z
m-421 48 c20 -23 24 -39 25 -85 0 -31 5 -60 10 -63 6 -4 10 16 10 53 0 46 5
66 22 88 12 16 23 31 25 33 1 2 13 -7 25 -20 13 -13 40 -37 61 -54 l38 -30
-16 -46 c-19 -56 -63 -109 -121 -150 l-45 -31 -41 28 c-57 40 -104 99 -123
153 l-16 46 28 20 c15 11 42 34 58 52 17 18 31 32 33 32 2 1 14 -11 27 -26z
m-1241 -154 c20 -7 35 -16 33 -19 -37 -65 -72 -158 -86 -227 -18 -88 -18 -88
-51 -91 -18 -2 -36 0 -41 5 -8 8 5 307 17 383 l7 40 42 -39 c23 -21 58 -45 79
-52z m2696 -142 c6 -93 9 -175 6 -183 -3 -9 -20 -14 -46 -14 -39 0 -40 1 -40
33 0 50 -27 144 -64 222 l-33 71 42 17 c23 10 57 33 76 53 l34 35 7 -33 c4
-18 12 -109 18 -201z m-2040 209 c0 -7 -7 -31 -16 -51 -12 -29 -18 -35 -25
-24 -13 21 -11 38 9 64 19 27 32 32 32 11z m1271 -8 c20 -26 23 -46 9 -68 -7
-12 -12 -7 -25 22 -26 64 -18 86 16 46z m-1251 -318 c5 -29 18 86 19 169 l1
85 28 -45 c16 -24 52 -65 81 -90 l53 -45 -13 -43 c-14 -48 -82 -129 -134 -161
l-35 -21 -40 28 c-26 18 -38 33 -34 43 3 8 8 69 11 135 5 96 10 128 27 160
l21 40 6 -120 c4 -66 7 -127 9 -135z m391 138 c1 -168 15 -178 24 -19 l8 135
18 -36 c10 -20 45 -60 78 -90 57 -51 60 -56 52 -85 -18 -63 -75 -135 -137
-173 l-33 -21 -43 29 c-61 42 -83 69 -114 136 l-27 59 29 20 c46 32 114 108
120 134 14 53 24 16 25 -89z m412 -132 c4 4 7 61 7 126 0 72 4 118 10 118 6 0
10 -6 10 -13 0 -22 68 -103 111 -133 43 -30 44 -36 7 -109 -25 -50 -51 -79
-106 -117 l-43 -29 -34 21 c-51 32 -111 105 -130 158 l-16 47 33 25 c48 37 96
91 110 125 12 27 14 19 23 -98 6 -71 13 -125 18 -121z m383 76 c3 -51 9 -91
12 -88 3 4 8 64 11 134 l6 127 21 -35 c17 -29 22 -59 27 -155 3 -66 9 -129 12
-140 4 -15 -4 -27 -35 -48 -37 -26 -41 -27 -67 -13 -45 23 -118 107 -138 159
l-18 47 59 54 c33 30 68 70 79 91 l20 36 2 -38 c2 -21 6 -80 9 -131z m-2832
116 c25 -35 5 -57 -52 -56 -54 1 -101 -19 -132 -59 -18 -23 -21 -36 -16 -76 7
-60 0 -77 -31 -77 -18 0 -28 9 -40 37 -46 112 67 252 204 253 42 0 55 -4 67
-22z m4639 7 c107 -44 165 -162 122 -245 -11 -21 -23 -30 -39 -30 -30 0 -37
17 -30 77 5 40 2 53 -16 76 -31 40 -78 60 -132 59 -38 -1 -50 3 -58 18 -27 50
73 79 153 45z m-4683 -147 c147 -270 415 -579 682 -788 l108 -84 -21 -30 c-11
-17 -25 -43 -31 -58 -5 -16 -13 -28 -16 -28 -25 1 -252 189 -373 310 -183 182
-307 337 -425 532 -55 91 -62 114 -43 149 9 18 65 59 79 59 3 0 21 -28 40 -62z
m4643 51 c87 -45 87 -80 0 -218 -159 -255 -363 -489 -585 -674 -79 -65 -198
-151 -202 -146 -1 2 -16 30 -33 61 l-31 57 96 73 c127 96 344 308 445 433 85
106 193 265 248 365 19 33 35 60 37 60 2 0 13 -5 25 -11z m-4499 -104 c143
-44 450 -91 631 -97 l70 -3 2 -45 c11 -202 48 -474 79 -587 5 -19 2 -23 -15
-23 -12 0 -35 -7 -51 -15 -29 -15 -30 -14 -131 62 -233 175 -504 475 -643 711
-9 15 -2 15 58 -3z m4350 3 c-128 -223 -407 -533 -641 -711 l-102 -77 -33 14
c-18 8 -41 17 -52 20 -11 4 -16 12 -12 21 27 71 69 381 79 580 l2 50 126 7
c164 9 367 40 504 76 131 35 138 36 129 20z m-2603 -272 c7 -7 19 119 19 203
l1 56 19 -36 c11 -20 47 -62 81 -93 l62 -56 -18 -47 c-20 -52 -93 -136 -138
-160 -27 -14 -30 -13 -82 26 -54 41 -98 102 -114 159 -8 27 -5 32 41 67 28 20
64 60 81 88 l32 50 5 -126 c3 -69 8 -128 11 -131z m387 137 c2 -65 7 -122 13
-127 5 -6 9 9 9 40 0 28 3 86 6 128 l7 77 28 -49 c15 -27 50 -66 78 -87 28
-22 51 -40 51 -42 0 -1 -9 -27 -20 -57 -14 -36 -36 -68 -68 -99 -73 -67 -86
-72 -127 -47 -51 32 -111 105 -129 158 l-16 46 32 25 c51 39 95 87 109 121 8
16 16 30 19 30 3 0 6 -53 8 -117z m397 -26 c4 -65 10 -115 14 -112 3 4 8 64
11 133 l5 127 28 -48 c15 -26 51 -66 80 -88 56 -45 59 -56 30 -114 -27 -52
-62 -93 -109 -125 l-45 -31 -33 20 c-52 32 -111 102 -131 154 l-18 47 65 60
c36 32 71 74 79 92 16 39 16 39 24 -115z m-1725 25 c0 -87 67 -273 130 -362
10 -14 23 -45 30 -70 15 -57 61 -158 100 -222 l30 -48 -23 -9 c-13 -5 -65 -19
-115 -32 -109 -26 -122 -22 -115 45 4 35 1 47 -17 64 -25 23 -48 111 -75 283
-16 104 -35 367 -28 382 2 4 22 7 44 7 39 0 39 0 39 -38z m2762 -62 c-8 -233
-58 -522 -100 -572 -20 -24 -23 -36 -18 -67 10 -64 -8 -70 -118 -42 -149 38
-141 30 -101 97 36 60 95 194 95 216 0 7 18 45 41 83 73 125 119 258 119 348
l0 38 43 -3 42 -3 -3 -95z m-704 -63 c16 -64 27 -117 23 -117 -28 0 -121 132
-121 172 0 11 61 70 67 65 1 -1 15 -55 31 -120z m-1365 94 c16 -9 27 -22 27
-34 0 -33 -39 -104 -78 -143 -53 -54 -54 -43 -1 159 6 21 13 37 17 35 4 -2 19
-10 35 -17z m47 -361 c5 -29 18 86 19 169 l1 85 29 -45 c16 -25 52 -66 80 -90
28 -24 51 -50 51 -57 0 -48 -90 -166 -151 -197 -29 -16 -31 -15 -81 21 -63 47
-108 115 -108 164 0 30 7 42 45 73 24 21 57 59 72 85 l28 47 6 -120 c4 -66 7
-127 9 -135z m402 -5 c3 -4 9 53 13 126 l8 133 18 -35 c20 -40 58 -82 108
-120 l35 -26 -18 -46 c-20 -53 -81 -126 -132 -157 l-35 -22 -40 28 c-51 35
-95 85 -113 129 -26 62 -24 70 31 114 29 22 65 62 80 88 l28 48 5 -127 c3 -69
8 -129 12 -133z m382 234 c-9 -15 8 -231 17 -222 5 5 9 61 10 126 1 110 9 146
23 94 6 -26 74 -102 119 -133 l27 -19 -15 -46 c-19 -54 -66 -113 -124 -153
l-40 -28 -35 21 c-63 39 -124 119 -139 181 -5 22 1 32 46 67 30 23 64 61 77
86 13 25 28 43 32 41 5 -3 6 -10 2 -15z m402 -147 c3 -51 9 -90 12 -87 4 4 9
63 12 133 l5 127 28 -47 c15 -26 48 -64 72 -85 38 -31 45 -43 45 -73 0 -49
-47 -120 -107 -164 -26 -20 -53 -36 -60 -36 -7 0 -41 28 -76 63 -44 42 -70 77
-82 110 l-18 47 59 54 c33 30 68 70 79 91 l20 36 2 -38 c2 -21 6 -80 9 -131z
m-985 -346 c6 -7 19 125 19 209 l1 50 19 -36 c11 -20 47 -62 80 -92 l61 -55
-12 -42 c-14 -48 -95 -142 -141 -166 -28 -15 -32 -14 -70 12 -46 33 -82 73
-107 123 -33 63 -30 75 19 112 25 19 61 58 80 88 l35 53 5 -125 c3 -69 8 -128
11 -131z m387 132 c3 -130 21 -173 24 -57 2 76 6 156 8 174 0 6 8 -5 17 -24
18 -37 61 -84 111 -122 l32 -25 -16 -46 c-18 -53 -78 -126 -129 -158 l-35 -22
-35 22 c-51 32 -111 105 -129 158 l-16 47 27 19 c44 31 99 92 114 124 7 17 16
29 19 27 3 -2 7 -55 8 -117z m397 -21 c4 -65 10 -115 14 -112 3 4 8 64 11 133
l5 127 27 -46 c25 -43 63 -83 114 -119 18 -13 20 -20 13 -46 -20 -71 -131
-194 -174 -194 -8 0 -43 28 -78 63 -45 43 -70 77 -83 111 l-18 49 35 26 c50
38 96 89 111 125 15 36 15 36 23 -117z m-1066 25 l64 -64 -12 -37 c-13 -45
-78 -134 -91 -126 -27 16 -65 231 -53 295 5 31 7 33 17 15 6 -11 40 -48 75
-83z m1452 -41 c-11 -87 -36 -176 -51 -186 -12 -8 -79 85 -92 127 l-11 38 59
54 c33 29 66 66 74 81 l14 27 9 -27 c6 -17 5 -60 -2 -114z m-2107 -100 c14
-15 15 -24 6 -40 -6 -12 -19 -21 -29 -21 -10 0 -30 -9 -45 -21 -60 -47 -74
-129 -31 -185 21 -27 24 -38 15 -54 -33 -62 -120 31 -120 128 0 79 73 180 147
202 40 12 38 12 57 -9z m2778 -16 c83 -54 121 -181 79 -263 -31 -60 -80 -81
-100 -44 -8 14 -4 27 14 55 42 61 29 139 -31 186 -15 12 -35 21 -45 21 -10 0
-23 9 -29 21 -9 17 -8 25 6 40 22 24 51 19 106 -16z m-2049 -123 l4 -123 -28
27 c-15 14 -38 46 -50 70 l-24 43 27 28 c14 15 34 44 43 63 10 19 19 31 21 25
1 -5 4 -65 7 -133z m136 6 c48 -41 52 -49 47 -76 -8 -35 -55 -109 -73 -117 -8
-2 -32 7 -55 21 l-41 26 7 76 c3 41 6 104 6 140 l0 66 28 -45 c16 -24 52 -65
81 -91z m273 -123 c3 -4 9 53 13 126 l8 133 18 -36 c21 -40 69 -93 113 -125
l30 -20 -19 -49 c-20 -53 -79 -123 -132 -155 l-34 -21 -40 28 c-58 40 -105 99
-124 153 -15 45 -15 46 7 61 48 32 90 75 116 119 l27 46 5 -127 c3 -69 8 -129
12 -133z m387 56 c2 -108 16 -57 21 77 l5 127 27 -46 c26 -44 68 -87 116 -119
22 -15 22 -16 7 -62 -19 -53 -79 -126 -130 -158 -31 -19 -36 -20 -63 -6 -44
23 -118 110 -138 163 l-18 46 30 20 c46 33 100 92 115 127 14 31 14 31 20 -37
4 -37 7 -97 8 -132z m397 31 c3 -51 9 -90 12 -87 4 4 9 63 12 133 l5 127 26
-45 c15 -25 36 -53 47 -64 l21 -18 -26 -42 c-33 -54 -110 -133 -148 -152 -29
-15 -31 -14 -56 14 -15 16 -34 50 -44 76 l-18 46 65 60 c36 32 72 74 79 92
l14 33 2 -40 c2 -22 6 -82 9 -133z m-1558 36 c37 -39 93 -90 124 -114 44 -32
55 -44 45 -53 -10 -7 -33 -3 -88 18 -174 66 -373 161 -351 169 28 9 178 50
190 51 7 0 43 -31 80 -71z m2119 46 c54 -14 100 -28 102 -30 6 -6 -235 -119
-339 -159 -70 -27 -96 -33 -106 -24 -11 9 -2 20 44 53 31 24 86 75 122 114 36
39 68 71 72 71 3 1 50 -11 105 -25z m-2448 -59 c93 -54 258 -131 361 -171 41
-15 76 -28 77 -29 2 -1 -9 -29 -25 -64 -25 -56 -29 -61 -52 -56 -47 12 -235
96 -355 158 -138 73 -157 94 -129 149 18 35 34 58 41 58 2 0 39 -20 82 -45z
m2704 27 c9 -10 22 -33 28 -50 18 -53 -4 -72 -178 -160 -147 -74 -329 -151
-336 -141 -10 16 -57 122 -55 123 2 1 48 19 103 41 103 39 272 121 360 174 60
36 58 36 78 13z m-1817 -208 c-5 -12 -46 -21 -46 -10 0 3 10 22 23 43 l22 38
3 -28 c2 -16 1 -35 -2 -43z m101 -30 c15 -16 42 -40 58 -52 l30 -23 -37 5
c-27 3 -48 16 -78 47 -34 36 -40 49 -40 83 l1 41 19 -36 c10 -19 31 -49 47
-65z m301 6 l3 -90 -74 0 c-40 0 -77 3 -80 6 -4 4 13 22 37 40 25 19 59 56 77
84 18 27 33 50 33 50 1 0 2 -41 4 -90z m87 5 c13 -17 39 -42 59 -56 20 -13 36
-27 36 -31 0 -5 -36 -8 -81 -8 l-81 0 6 53 c3 28 5 70 6 92 l0 40 16 -30 c8
-16 26 -44 39 -60z m265 -34 c-29 -31 -51 -44 -78 -47 l-37 -5 30 22 c47 36
92 88 107 123 l13 31 3 -40 c3 -36 -2 -46 -38 -84z m99 83 c26 -44 26 -46 -1
-42 -19 2 -24 10 -26 41 -2 20 -1 37 1 37 3 0 14 -16 26 -36z m-1128 -21 c35
-21 35 -24 8 -49 -11 -10 -26 -28 -31 -38 -6 -11 13 1 43 27 60 53 91 59 133
26 24 -19 25 -23 12 -38 -20 -22 -38 -71 -26 -71 6 0 10 6 10 14 0 8 20 31 45
52 44 35 47 36 84 26 21 -7 46 -21 56 -32 18 -20 18 -21 -7 -48 -48 -51 -98
-181 -98 -255 0 -35 12 -28 35 18 12 28 22 35 38 33 50 -7 -4 -112 -73 -143
-38 -17 -45 -18 -83 -4 -59 20 -80 63 -73 146 3 34 12 78 20 97 22 52 10 44
-19 -14 -19 -38 -25 -65 -25 -115 0 -61 -2 -66 -25 -75 -30 -11 -62 -1 -90 29
-24 28 -26 134 -3 199 21 58 12 53 -17 -10 -18 -38 -25 -70 -25 -115 0 -55 -2
-63 -19 -63 -55 0 -81 41 -81 128 0 116 55 238 123 274 41 22 52 22 88 1z
m1463 -3 c50 -24 81 -69 107 -150 33 -107 20 -226 -26 -244 -47 -18 -55 -9
-55 57 0 45 -7 77 -25 115 -27 59 -42 72 -18 15 25 -57 23 -175 -2 -203 -27
-30 -60 -41 -89 -30 -21 8 -23 14 -23 72 0 45 -6 76 -23 111 -31 65 -40 67
-19 4 55 -158 -20 -274 -143 -219 -37 16 -50 29 -71 72 -28 56 -27 70 3 70 13
0 27 -14 40 -40 11 -22 23 -40 27 -40 11 0 -6 101 -27 165 -12 35 -37 81 -57
105 l-37 43 28 23 c47 41 71 41 121 -1 25 -20 45 -43 45 -51 0 -8 4 -14 10
-14 11 0 -4 46 -23 68 -9 11 -6 19 16 38 40 35 66 30 127 -23 51 -45 53 -46
35 -15 -11 17 -23 32 -27 32 -19 0 -5 31 20 44 35 20 38 20 86 -4z m-769 -165
c83 0 195 2 250 5 l100 5 30 -57 c16 -31 27 -60 23 -63 -38 -39 -778 -38 -817
0 -5 6 21 65 45 103 14 21 18 22 117 15 56 -5 170 -8 252 -8z m-299 -262 c-4
-48 -9 -101 -12 -118 -4 -28 -3 -28 10 6 8 20 20 71 26 113 9 52 17 76 26 76
11 0 13 -15 8 -72 -4 -40 -10 -93 -14 -118 -5 -25 -7 -46 -5 -48 5 -6 33 98
45 171 7 37 16 67 21 67 12 0 11 -90 -1 -164 -5 -33 -8 -62 -5 -64 5 -6 25 71
39 151 6 37 15 65 19 61 17 -17 -1 -352 -28 -519 -2 -16 6 2 20 41 31 94 55
257 55 383 0 92 2 101 19 101 17 0 19 -15 24 -227 4 -126 11 -250 16 -278 14
-72 14 -1045 0 -1045 -6 0 -26 12 -45 26 -33 26 -34 28 -34 101 0 43 6 89 15
110 19 44 13 54 -10 19 -23 -34 -44 -94 -45 -126 -1 -22 -2 -23 -11 -7 -17 28
-13 156 6 212 10 28 31 70 48 95 30 44 30 45 3 21 -45 -42 -86 -116 -104 -190
-9 -39 -20 -71 -23 -71 -13 0 -18 108 -8 170 11 73 63 191 111 254 l32 41 -48
-45 c-91 -87 -141 -187 -155 -314 l-8 -71 -33 70 c-22 45 -35 89 -38 125 l-4
55 61 39 c98 64 141 142 140 256 -1 60 -2 62 -11 30 -31 -115 -41 -141 -67
-177 -16 -22 -42 -50 -58 -61 l-28 -20 0 108 c0 60 -4 113 -10 119 -7 7 -10
-8 -11 -43 -2 -86 -30 -152 -88 -213 -29 -29 -57 -53 -63 -53 -7 0 4 24 23 52
19 29 34 58 34 64 0 7 3 21 6 31 5 15 3 15 -7 -2 -34 -55 -93 -115 -122 -123
-66 -20 -106 -21 -128 -3 l-21 17 41 28 c142 99 282 369 306 589 5 43 2 37
-18 -38 -55 -205 -165 -375 -243 -375 -37 0 -54 15 -27 25 10 3 34 19 53 36
l35 31 -42 -21 c-57 -29 -122 -42 -145 -30 -26 14 -22 29 7 29 61 0 176 64
211 118 17 25 15 25 -20 -6 -44 -38 -88 -58 -153 -68 l-47 -7 36 49 c50 68 76
123 92 195 16 66 16 66 -37 44 -14 -6 -11 3 12 41 16 27 33 67 36 89 l6 40
-19 -35 c-31 -61 -65 -101 -105 -125 -33 -19 -44 -21 -77 -13 -38 10 -110 61
-110 79 0 5 24 21 53 35 76 38 130 86 177 156 38 58 80 100 80 81 1 -23 -60
-123 -97 -160 -23 -24 -40 -43 -36 -43 19 0 78 59 114 113 23 34 43 63 45 65
1 2 14 -4 29 -14 25 -16 26 -21 20 -63 -4 -25 -17 -76 -29 -113 -12 -38 -21
-68 -20 -68 9 0 55 95 74 153 30 93 45 87 37 -15 -8 -93 -26 -174 -61 -260
-30 -73 -17 -66 29 16 42 75 75 197 75 276 0 54 2 58 51 109 l52 54 -7 -49
c-4 -27 -9 -65 -12 -84 -4 -25 -2 -31 5 -20 11 17 41 158 41 193 0 25 7 37 23
37 6 0 7 -33 3 -87z m618 20 c4 -32 15 -85 26 -118 18 -56 19 -57 15 -17 -3
23 -8 60 -11 83 l-6 41 51 -53 c48 -49 51 -56 51 -103 1 -107 51 -262 110
-336 17 -22 16 -18 -5 36 -36 89 -53 164 -61 262 -7 98 2 100 30 7 15 -51 60
-145 70 -145 1 0 -7 30 -20 68 -12 37 -25 87 -28 112 -6 42 -4 46 22 61 l28
16 39 -59 c33 -52 98 -118 116 -118 3 0 -13 19 -35 43 -41 43 -103 153 -93
164 11 10 47 -24 88 -86 42 -63 110 -122 187 -160 23 -12 42 -25 42 -30 0 -18
-73 -69 -112 -79 -36 -9 -45 -8 -78 14 -39 26 -74 68 -102 124 -9 19 -17 28
-18 19 0 -26 28 -98 52 -131 20 -30 21 -31 2 -24 -54 22 -54 22 -40 -36 18
-73 39 -121 86 -189 l40 -59 -28 0 c-52 0 -128 29 -171 67 -30 25 -40 30 -33
16 29 -53 155 -123 222 -123 34 0 39 -14 10 -30 -22 -12 -94 1 -141 25 -44 23
-45 18 -4 -15 21 -16 44 -30 52 -30 8 0 11 -4 8 -10 -3 -5 -21 -10 -39 -10
-27 0 -42 9 -78 48 -74 79 -123 180 -169 347 -19 66 -19 67 -14 20 23 -213
169 -496 304 -590 l43 -29 -22 -18 c-17 -13 -32 -16 -68 -11 -75 9 -106 27
-153 86 -24 31 -45 55 -47 53 -6 -7 27 -76 55 -113 24 -31 25 -35 7 -25 -34
18 -83 73 -104 118 -23 47 -41 140 -34 176 3 15 -2 11 -12 -12 -13 -27 -15
-54 -11 -123 l6 -87 -30 20 c-57 41 -119 151 -119 213 0 12 -5 29 -11 37 -8
11 -9 -6 -6 -60 6 -113 53 -187 155 -247 l44 -26 -4 -56 c-3 -37 -16 -80 -38
-126 l-33 -70 -9 80 c-11 109 -65 219 -144 295 l-57 55 36 -49 c81 -108 124
-246 111 -357 -6 -57 -24 -83 -24 -36 0 63 -65 192 -120 242 -18 16 -17 12 7
-25 49 -74 65 -127 65 -211 1 -42 -4 -85 -10 -95 -11 -18 -11 -17 -12 6 -2 48
-53 160 -67 146 -3 -3 -1 -11 5 -19 15 -18 32 -130 25 -171 -4 -24 -17 -44
-43 -65 -21 -16 -40 -28 -43 -25 -11 11 -7 977 3 1034 6 30 13 160 17 288 5
210 7 232 23 232 15 0 18 -18 23 -147 6 -146 30 -288 61 -368 l16 -40 -5 35
c-3 19 -9 71 -15 115 -15 111 -25 369 -15 391 5 14 11 -1 20 -51 15 -84 35
-159 40 -153 3 2 0 31 -5 64 -12 74 -13 164 -1 164 10 0 21 -34 21 -64 0 -25
41 -178 46 -173 2 2 0 28 -5 58 -19 111 -22 179 -7 179 9 0 17 -25 26 -76 6
-42 18 -93 26 -113 l14 -36 -5 45 c-2 25 -7 73 -11 107 -6 60 -1 88 15 78 5
-2 11 -31 15 -62z m-2748 -344 c33 -28 36 -48 10 -74 -55 -55 -184 -14 -159
50 15 40 112 55 149 24z m4958 7 c75 -31 42 -106 -47 -106 -74 0 -114 53 -69
92 34 31 67 34 116 14z m-5017 -128 c23 1 52 6 63 12 18 9 20 8 20 -14 0 -56
-104 -77 -156 -33 -18 16 -25 29 -21 41 6 14 10 15 29 5 11 -6 41 -11 65 -11z
m4968 0 c24 0 53 5 64 12 17 9 22 8 28 -6 4 -12 -3 -25 -21 -41 -52 -44 -156
-23 -156 33 0 22 2 23 21 14 11 -7 40 -12 64 -12z m-4969 -92 c1 0 -5 -41 -13
-91 -23 -147 2 -375 55 -505 15 -34 14 -32 -8 120 -29 197 -25 424 9 478 12
19 156 -132 177 -186 9 -23 15 -45 12 -47 -3 -3 -22 11 -42 30 -63 59 -82 62
-37 5 112 -142 164 -357 127 -529 l-15 -73 25 -37 c53 -77 88 -274 66 -366
l-10 -40 -1 51 c-1 73 -32 164 -96 288 -30 58 -55 118 -56 133 0 16 -3 22 -6
15 -8 -21 15 -100 59 -197 77 -172 90 -249 22 -130 -70 123 -86 155 -105 220
-24 82 -24 47 1 -46 10 -42 49 -136 85 -210 42 -87 67 -151 70 -184 l6 -50
-17 30 c-9 17 -40 55 -69 85 -55 58 -85 110 -116 195 -10 27 -18 43 -18 35 -1
-32 29 -154 45 -177 26 -40 9 -37 -23 4 -80 101 -126 201 -147 322 l-14 76 -1
-60 c-1 -78 21 -169 59 -248 l31 -62 -34 36 c-45 47 -105 151 -117 202 -5 23
-10 95 -10 160 0 64 -4 117 -9 117 -4 0 -11 -37 -15 -82 -4 -46 -11 -87 -15
-91 -25 -25 -30 170 -7 253 6 21 5 22 -4 7 -6 -10 -17 -46 -25 -80 l-13 -62
-1 45 c-1 53 10 96 54 210 49 129 52 157 9 80 -21 -36 -47 -89 -59 -118 -28
-66 -36 -49 -25 52 8 66 19 97 84 229 41 83 78 165 82 180 5 23 10 26 28 21
11 -4 22 -7 22 -8z m4941 -42 c24 -93 15 -312 -22 -544 l-5 -35 15 40 c42 106
59 208 58 350 0 77 -5 160 -11 185 -8 34 -8 46 1 52 24 15 33 7 56 -54 13 -35
50 -115 82 -178 49 -95 61 -130 71 -198 8 -63 8 -86 0 -94 -9 -9 -12 -7 -12 8
0 10 -25 64 -55 119 -58 105 -63 91 -13 -35 45 -113 58 -167 58 -252 0 -92
-16 -106 -18 -17 -2 65 -15 124 -33 149 -9 12 -10 11 -4 -5 21 -66 26 -188 8
-235 -8 -20 -22 51 -22 114 -1 27 -4 46 -8 42 -5 -4 -10 -74 -13 -155 l-5
-147 -50 -82 c-27 -45 -62 -95 -78 -110 l-29 -27 30 60 c40 80 62 169 61 246
l-1 64 -8 -50 c-11 -73 -29 -132 -60 -200 -28 -63 -118 -191 -126 -182 -3 3 2
16 10 30 16 23 46 145 45 177 0 8 -8 -8 -18 -35 -30 -83 -61 -136 -111 -189
-26 -28 -58 -67 -70 -86 l-22 -35 6 49 c4 31 30 98 71 181 35 73 74 169 85
215 22 84 23 124 1 48 -16 -58 -41 -117 -62 -148 -10 -14 -36 -59 -58 -100
-35 -65 -41 -71 -41 -45 1 28 32 115 93 260 15 34 28 81 31 105 6 45 6 45 -4
8 -5 -20 -36 -90 -69 -156 -33 -65 -64 -138 -70 -161 -15 -69 -24 -61 -16 14
10 107 23 154 60 223 l34 64 -16 71 c-36 170 24 408 135 537 42 50 15 41 -44
-15 -20 -19 -39 -34 -41 -31 -2 2 3 22 11 46 14 42 151 199 171 195 5 -1 15
-24 22 -51z m-3837 -1329 c91 -47 -4 -148 -110 -116 -73 22 -90 96 -28 121 36
14 106 12 138 -5z m2900 0 c91 -47 -4 -148 -110 -116 -52 15 -78 52 -60 85 7
13 22 29 34 34 31 16 103 14 136 -3z m-3002 -145 c30 -7 75 -2 113 15 45 18
27 -54 -18 -74 -57 -26 -154 -4 -168 39 -8 26 3 43 24 35 9 -4 31 -11 49 -15z
m2904 -1 c27 -7 50 -5 84 7 52 18 59 15 50 -20 -17 -70 -189 -75 -211 -6 -8
26 3 43 24 35 9 -4 33 -11 53 -16z m-2611 -314 c10 -22 19 -51 19 -64 0 -21
-6 -17 -61 33 -33 31 -64 56 -70 56 -5 0 12 -26 38 -57 53 -66 113 -188 139
-283 22 -82 26 -312 6 -381 -13 -44 -13 -47 22 -110 43 -79 76 -202 75 -278
-1 -31 -3 -47 -6 -36 -16 72 -52 157 -101 237 -31 51 -67 118 -80 148 -23 55
-23 55 -18 15 3 -22 37 -103 75 -180 75 -150 101 -225 101 -289 l-1 -41 -48
90 c-26 50 -63 116 -83 147 -19 32 -45 90 -58 130 -36 117 -40 128 -33 83 15
-103 49 -202 117 -345 83 -172 96 -209 96 -254 l-1 -31 -19 35 c-10 19 -45 63
-78 98 -64 67 -114 151 -144 242 l-18 55 5 -60 c4 -33 11 -75 17 -93 17 -56 3
-46 -26 17 -23 52 -77 239 -89 311 -2 14 -5 2 -6 -27 -1 -42 23 -169 45 -241
5 -14 3 -13 -10 2 -27 34 -76 172 -90 259 l-14 82 -1 -76 c-1 -95 26 -203 75
-300 22 -45 30 -68 19 -59 -27 23 -103 133 -140 205 -34 65 -35 70 -36 188 -1
67 -4 154 -8 192 l-6 70 -7 -65 c-4 -36 -12 -101 -19 -145 -10 -68 -13 -76
-22 -55 -6 14 -10 77 -10 140 0 91 4 129 21 180 13 39 16 58 7 47 -16 -23 -55
-163 -55 -203 0 -19 -3 -25 -9 -16 -19 30 11 193 53 285 25 53 66 180 66 201
0 10 -17 -21 -101 -184 -34 -65 -36 -51 -8 56 12 47 35 101 55 132 20 30 34
55 32 57 -8 8 -81 -109 -99 -158 l-19 -52 5 45 c3 28 35 105 84 205 44 88 87
181 97 208 13 37 22 47 39 47 12 0 24 -2 27 -5 2 -3 -2 -33 -9 -67 -21 -92
-20 -323 1 -432 17 -90 64 -251 71 -244 2 2 -5 55 -16 118 -37 213 -37 515 0
612 l10 27 92 -92 c50 -51 100 -110 110 -132z m2609 132 c8 -36 13 -123 12
-207 -1 -128 -9 -198 -46 -440 -9 -57 51 127 69 215 22 101 23 350 2 443 -11
52 -12 65 -1 69 30 11 48 -4 66 -57 10 -30 52 -122 93 -205 69 -137 96 -217
95 -279 -1 -11 -13 15 -29 60 -15 44 -45 106 -66 136 -50 71 -58 68 -11 -4 33
-51 71 -157 64 -179 -2 -6 -27 33 -56 88 -55 105 -62 89 -15 -37 14 -36 36
-96 51 -135 22 -59 26 -89 28 -190 l3 -120 -14 83 c-15 92 -51 218 -64 226 -5
3 0 -22 10 -55 11 -34 22 -85 25 -114 7 -61 -4 -188 -15 -180 -5 2 -14 55 -22
117 l-14 113 -6 -70 c-4 -38 -7 -122 -8 -185 -1 -132 -14 -168 -101 -294 -76
-110 -101 -128 -56 -40 50 98 76 208 75 308 l-2 81 -8 -64 c-11 -89 -44 -193
-86 -274 -20 -37 -37 -66 -38 -65 -1 2 10 55 26 118 16 63 28 140 28 170 l-1
55 -13 -65 c-19 -92 -63 -238 -81 -269 -8 -14 -13 -18 -10 -9 3 9 7 45 11 80
l6 63 -19 -55 c-29 -87 -83 -181 -132 -230 -24 -25 -59 -67 -77 -94 -32 -47
-33 -47 -33 -19 0 44 30 124 99 260 60 121 103 245 114 333 6 49 4 43 -34 -78
-12 -41 -44 -110 -72 -155 -27 -45 -67 -117 -88 -161 -21 -43 -41 -81 -43 -83
-9 -9 6 112 20 167 8 30 46 118 85 195 39 77 72 158 75 180 3 31 2 34 -4 15
-13 -37 -38 -85 -94 -176 -27 -45 -60 -110 -73 -145 -20 -54 -24 -59 -24 -33
-1 54 38 185 75 251 l35 63 -17 77 c-45 205 23 484 158 646 54 64 32 59 -43
-10 l-62 -58 7 40 c10 54 24 75 125 181 98 103 100 103 121 1z m-1351 1 c24
-13 51 -35 60 -51 14 -25 14 -30 1 -55 -9 -14 -33 -36 -54 -48 l-38 -21 55 -5
c124 -10 235 -130 236 -253 1 -51 -37 -131 -80 -172 -38 -35 -117 -77 -167
-88 l-32 -7 0 -476 c1 -442 0 -477 -16 -489 -35 -26 -77 -5 -86 42 -3 18 -12
20 -106 23 -93 2 -102 4 -102 22 0 18 9 20 103 22 l102 3 0 65 0 65 -85 1
c-118 1 -120 1 -120 24 0 18 8 20 103 22 l102 3 3 62 3 62 -103 3 c-98 3 -103
4 -106 25 -3 23 -2 23 102 23 l106 0 0 249 0 249 -37 7 c-95 17 -194 89 -233
169 -70 146 62 344 232 347 39 0 41 1 18 10 -38 15 -80 60 -80 85 0 31 40 75
81 90 51 19 90 16 138 -8z"/>
<path d="M1435 7833 c9 -61 41 -119 84 -152 37 -28 37 -27 -15 52 -18 28 -41
73 -50 99 -20 61 -28 61 -19 1z"/>
<path d="M4185 7831 c-9 -28 -34 -77 -56 -111 -24 -38 -33 -57 -22 -51 25 13
58 51 76 86 15 31 34 125 24 125 -3 0 -13 -22 -22 -49z"/>
<path d="M1550 7783 c0 -40 38 -110 73 -135 32 -23 31 -20 -14 47 -14 22 -32
57 -38 78 -15 44 -21 47 -21 10z"/>
<path d="M4073 7779 c-7 -19 -28 -61 -47 -92 l-35 -58 29 21 c35 25 73 100 68
136 -3 27 -3 27 -15 -7z"/>
<path d="M2730 6752 c0 -10 11 -29 25 -42 l25 -23 0 22 c0 31 -18 61 -35 61
-8 0 -15 -8 -15 -18z"/>
<path d="M2870 6744 c-18 -48 -13 -60 15 -34 28 26 33 60 10 60 -9 0 -20 -12
-25 -26z"/>
<path d="M1636 5605 c-9 -26 -7 -32 5 -12 6 10 9 21 6 23 -2 3 -7 -2 -11 -11z"/>
<path d="M1720 4927 c0 -39 133 -260 182 -303 l22 -19 -21 30 c-12 17 -57 91
-102 165 -45 74 -81 132 -81 127z"/>
<path d="M3860 4833 c-30 -52 -74 -124 -97 -160 -53 -80 -38 -73 28 15 46 61
136 228 128 237 -2 2 -29 -39 -59 -92z"/>
<path d="M477 3120 c32 -52 69 -173 88 -286 9 -54 19 -101 21 -103 11 -12 2
173 -11 224 -17 63 -66 154 -99 183 -18 16 -18 14 1 -18z"/>
<path d="M5139 3108 c-61 -83 -89 -176 -89 -293 1 -88 13 -85 23 5 9 80 44
203 76 271 15 32 26 59 25 59 -2 0 -18 -19 -35 -42z"/>
<path d="M1529 1459 c45 -65 115 -304 128 -436 6 -73 7 -75 14 -38 29 151 -23
348 -117 450 -20 22 -31 33 -25 24z"/>
<path d="M4086 1439 c-91 -108 -136 -263 -121 -418 l8 -76 18 120 c19 132 56
258 100 348 15 31 26 57 24 57 -2 0 -15 -14 -29 -31z"/>
<path d="M2705 1466 c-157 -72 -164 -249 -14 -331 120 -65 277 -24 336 89 8
16 15 52 15 79 0 142 -188 233 -337 163z m204 -46 c81 -41 106 -104 70 -176
-36 -76 -135 -111 -230 -82 -83 24 -137 111 -109 177 37 90 173 131 269 81z"/>
</g>
</svg>
